<?xml version="1.0" standalone="no"?>
<!DOCTYPE svg PUBLIC "-//W3C//DTD SVG 20010904//EN"
 "http://www.w3.org/TR/2001/REC-SVG-20010904/DTD/svg10.dtd">
<svg version="1.0" xmlns="http://www.w3.org/2000/svg"
 width="434.000000pt" height="434.000000pt" viewBox="0 0 434.000000 434.000000"
 preserveAspectRatio="xMidYMid meet">
<metadata>
Created by potrace 1.14, written by Peter Selinger 2001-2017
</metadata>
<g transform="translate(0.000000,434.000000) scale(0.100000,-0.100000)"
fill="#000000" stroke="none">
<path d="M2027 3784 c-1 -1 -51 -5 -112 -8 -225 -14 -329 -27 -386 -51 -9 -3
-34 1 -55 10 -60 26 -247 24 -307 -3 -155 -69 -221 -198 -247 -486 -5 -54 -14
-103 -19 -110 -17 -21 -50 -146 -65 -248 -9 -62 -16 -187 -17 -316 -1 -118 -5
-230 -10 -250 -5 -21 -12 -53 -15 -72 -3 -19 -15 -68 -25 -110 -47 -178 -65
-357 -45 -445 3 -16 8 -39 10 -50 14 -66 92 -239 115 -255 4 -3 21 -26 39 -51
46 -68 125 -131 159 -127 23 2 29 9 36 43 4 22 6 50 4 62 -6 32 7 29 22 -4 27
-60 74 -124 90 -121 16 2 49 -6 86 -22 54 -22 115 -30 273 -36 130 -5 172 -10
172 -20 0 -7 -4 -15 -9 -18 -13 -9 -19 -51 -12 -93 6 -33 -2 -55 -61 -174 -37
-75 -68 -141 -68 -148 0 -6 -4 -11 -9 -11 -7 0 -33 -53 -88 -180 -9 -19 -31
-67 -49 -107 -19 -40 -34 -78 -34 -84 0 -6 -9 -26 -19 -43 -10 -17 -22 -47
-26 -66 -4 -19 -20 -64 -36 -99 -38 -85 -38 -91 11 -91 35 0 40 3 40 23 0 35
59 197 130 357 76 172 244 500 256 500 2 0 22 -38 45 -84 22 -46 56 -106 75
-133 19 -26 34 -52 34 -58 0 -5 23 -55 50 -110 49 -97 51 -102 58 -215 4 -63
7 -152 7 -197 l0 -83 33 0 33 0 -5 203 c-3 111 -8 216 -11 232 -8 40 -23 238
-18 247 2 3 22 9 46 13 23 4 76 15 117 25 100 24 235 41 315 39 l65 -2 0 -99
c0 -118 -6 -133 -90 -238 -34 -41 -71 -88 -83 -104 -35 -45 -115 -134 -205
-226 l-83 -85 133 -3 133 -3 39 43 c40 45 119 163 139 207 10 22 12 3 15 -111
l3 -138 32 0 32 0 0 208 0 207 98 195 c53 107 97 201 97 208 0 7 15 41 33 75
19 34 39 78 47 97 7 19 18 49 24 67 l12 32 55 -53 c30 -29 70 -75 89 -101 19
-26 50 -65 68 -87 17 -22 32 -44 32 -50 0 -5 11 -24 25 -42 68 -89 155 -277
230 -499 19 -56 39 -111 44 -122 4 -11 16 -46 26 -77 17 -53 21 -58 47 -58 31
0 31 -8 7 105 -24 114 -137 425 -191 525 -42 76 -68 120 -91 153 -51 74 -214
266 -272 323 -48 45 -66 71 -75 104 -7 25 -25 70 -41 102 l-29 57 148 77 c81
42 155 83 164 92 10 8 24 12 32 9 14 -6 46 23 64 58 18 36 52 139 52 160 0 13
8 4 20 -24 11 -24 20 -53 20 -66 0 -67 73 -46 110 32 45 93 38 245 -19 438
-31 105 -96 269 -116 295 -31 39 -183 338 -196 385 -5 17 -17 62 -27 100 -21
77 -24 87 -58 162 -13 28 -24 55 -24 58 0 4 -6 21 -14 38 -7 18 -21 52 -31 77
-11 25 -27 54 -37 66 -10 11 -18 24 -18 28 0 5 -22 34 -48 65 -27 31 -57 67
-68 81 -28 36 -122 130 -174 173 -90 75 -223 105 -478 109 -96 2 -174 2 -175
2z m672 -594 c169 -285 253 -586 301 -1074 l11 -109 -38 -56 c-51 -74 -263
-285 -312 -311 -22 -11 -43 -25 -46 -31 -4 -6 -48 -31 -98 -55 -105 -51 -133
-75 -118 -103 6 -10 8 -21 5 -24 -6 -5 9 -93 26 -157 7 -27 17 -41 33 -45 12
-3 43 -15 69 -27 l46 -21 7 -126 c3 -69 8 -149 10 -177 l3 -51 -97 -6 c-53 -4
-106 -9 -118 -11 -11 -2 -43 -7 -70 -11 -26 -3 -89 -15 -140 -27 -50 -11 -98
-18 -106 -15 -14 5 -19 51 -29 280 -1 38 55 97 93 97 15 0 30 4 33 9 9 13 -23
140 -42 174 -16 27 -16 29 2 42 11 8 16 21 13 30 -5 12 -15 14 -49 8 -24 -4
-101 -7 -173 -7 -121 0 -136 2 -225 33 -52 18 -104 39 -115 45 -11 7 -39 18
-63 25 -52 15 -132 58 -149 80 -6 9 -15 32 -18 51 -4 19 -13 49 -20 65 -88
202 -147 445 -171 705 -27 296 -27 443 0 485 14 21 18 46 17 94 l-1 66 30 -35
c17 -19 44 -50 60 -69 l29 -33 68 7 c37 4 115 18 173 32 166 38 347 72 445 83
50 6 115 15 145 20 30 5 70 12 88 15 18 3 61 12 95 21 34 9 73 18 87 21 39 9
70 43 76 85 4 21 10 35 15 33 4 -3 19 -30 33 -60 19 -42 30 -55 46 -55 31 0
76 49 91 99 13 45 16 44 48 -9z m71 -1846 c55 -10 80 -31 111 -97 44 -97 41
-163 -13 -272 -61 -122 -79 -153 -123 -210 -20 -27 -45 -66 -56 -87 -11 -22
-22 -38 -24 -36 -2 1 -7 89 -11 193 -10 260 -11 283 -20 339 -7 48 -7 48 -71
77 -46 21 -66 36 -74 55 -19 52 -11 55 123 49 68 -3 139 -8 158 -11z m-686
-126 c6 -28 1 -36 -50 -85 l-57 -53 2 -73 c2 -79 9 -203 20 -342 4 -49 6 -92
4 -95 -6 -7 -22 21 -32 57 -5 18 -23 53 -41 79 -67 99 -150 290 -150 345 0 38
42 72 171 139 63 33 117 60 120 60 4 0 9 -14 13 -32z"/>
<path d="M2420 2807 c-33 -17 -50 -53 -50 -110 0 -93 49 -157 120 -157 54 0
78 24 91 92 15 75 -4 132 -56 166 -39 25 -68 28 -105 9z"/>
<path d="M1479 2617 c-63 -48 -23 -229 57 -263 29 -12 39 -12 61 -2 82 41 84
221 2 263 -34 18 -98 19 -120 2z"/>
<path d="M2212 2044 c-14 -10 -53 -17 -105 -21 -62 -4 -87 -9 -101 -24 -18
-17 -18 -19 -3 -25 10 -3 57 -1 105 5 124 15 253 81 159 81 -18 0 -43 -7 -55
-16z"/>
<path d="M3007 643 c-6 -9 29 -177 58 -278 9 -33 20 -78 25 -100 5 -22 18 -83
30 -135 11 -52 22 -103 23 -112 1 -13 10 -18 35 -18 32 0 34 2 28 28 -47 199
-60 250 -67 267 -4 11 -11 38 -14 60 -4 22 -11 45 -17 52 -5 7 -7 16 -4 22 3
5 -3 35 -14 67 -10 33 -25 79 -32 104 -12 42 -38 64 -51 43z"/>
<path d="M1692 538 c-42 -54 -100 -247 -128 -428 -3 -19 -9 -52 -14 -72 l-8
-38 39 0 c34 0 39 3 39 23 0 12 7 54 16 92 52 226 75 324 85 358 15 56 -3 97
-29 65z"/>
</g>
</svg>
